<mxfile host="Electron" modified="2023-05-20T19:37:45.140Z" agent="Mozilla/5.0 (Windows NT 10.0; Win64; x64) AppleWebKit/537.36 (KHTML, like Gecko) draw.io/21.2.8 Chrome/112.0.5615.165 Electron/24.2.0 Safari/537.36" etag="buxOVL5dBgQfLjVc_b3Q" version="21.2.8" type="device">
  <diagram name="Página-1" id="SEeeFkuRjXuaV4kP3Bzi">
    <mxGraphModel dx="1947" dy="532" grid="1" gridSize="10" guides="1" tooltips="1" connect="1" arrows="1" fold="1" page="1" pageScale="1" pageWidth="827" pageHeight="1169" math="0" shadow="0">
      <root>
        <mxCell id="0" />
        <mxCell id="1" parent="0" />
        <mxCell id="fECDbQGhn2Nu8HvRsYtQ-1" value="Jose:&amp;nbsp;Cuidado del espacio verde inteligente&lt;br&gt;Rodri:&amp;nbsp;Luces automáticas&lt;br&gt;Adrian: Estacionamiento inteligente" style="text;html=1;align=center;verticalAlign=middle;resizable=0;points=[];autosize=1;strokeColor=none;fillColor=none;" parent="1" vertex="1">
          <mxGeometry x="1100" y="1070" width="260" height="60" as="geometry" />
        </mxCell>
        <mxCell id="fECDbQGhn2Nu8HvRsYtQ-116" value="edificio" style="swimlane;fontStyle=0;childLayout=stackLayout;horizontal=1;startSize=26;fillColor=none;horizontalStack=0;resizeParent=1;resizeParentMax=0;resizeLast=0;collapsible=1;marginBottom=0;whiteSpace=wrap;html=1;" parent="1" vertex="1">
          <mxGeometry x="880" y="610" width="160" height="108" as="geometry" />
        </mxCell>
        <mxCell id="fECDbQGhn2Nu8HvRsYtQ-117" value="idEdificio: int" style="text;strokeColor=none;fillColor=none;align=left;verticalAlign=top;spacingLeft=4;spacingRight=4;overflow=hidden;rotatable=0;points=[[0,0.5],[1,0.5]];portConstraint=eastwest;whiteSpace=wrap;html=1;" parent="fECDbQGhn2Nu8HvRsYtQ-116" vertex="1">
          <mxGeometry y="26" width="160" height="26" as="geometry" />
        </mxCell>
        <mxCell id="fECDbQGhn2Nu8HvRsYtQ-118" value="nombre: string" style="text;strokeColor=none;fillColor=none;align=left;verticalAlign=top;spacingLeft=4;spacingRight=4;overflow=hidden;rotatable=0;points=[[0,0.5],[1,0.5]];portConstraint=eastwest;whiteSpace=wrap;html=1;" parent="fECDbQGhn2Nu8HvRsYtQ-116" vertex="1">
          <mxGeometry y="52" width="160" height="26" as="geometry" />
        </mxCell>
        <mxCell id="JHWDTWZnFsFwWDoPUUQF-21" value="idLugar: FK lugar" style="text;strokeColor=none;fillColor=none;spacingLeft=4;spacingRight=4;overflow=hidden;rotatable=0;points=[[0,0.5],[1,0.5]];portConstraint=eastwest;fontSize=12;whiteSpace=wrap;html=1;" parent="fECDbQGhn2Nu8HvRsYtQ-116" vertex="1">
          <mxGeometry y="78" width="160" height="30" as="geometry" />
        </mxCell>
        <mxCell id="fECDbQGhn2Nu8HvRsYtQ-123" value="parking" style="swimlane;fontStyle=0;childLayout=stackLayout;horizontal=1;startSize=26;fillColor=none;horizontalStack=0;resizeParent=1;resizeParentMax=0;resizeLast=0;collapsible=1;marginBottom=0;whiteSpace=wrap;html=1;" parent="1" vertex="1">
          <mxGeometry x="1120" y="610" width="240" height="134" as="geometry" />
        </mxCell>
        <mxCell id="fECDbQGhn2Nu8HvRsYtQ-124" value="idParking: int" style="text;strokeColor=none;fillColor=none;align=left;verticalAlign=top;spacingLeft=4;spacingRight=4;overflow=hidden;rotatable=0;points=[[0,0.5],[1,0.5]];portConstraint=eastwest;whiteSpace=wrap;html=1;" parent="fECDbQGhn2Nu8HvRsYtQ-123" vertex="1">
          <mxGeometry y="26" width="240" height="26" as="geometry" />
        </mxCell>
        <mxCell id="fECDbQGhn2Nu8HvRsYtQ-125" value="baja: boolean" style="text;strokeColor=none;fillColor=none;align=left;verticalAlign=top;spacingLeft=4;spacingRight=4;overflow=hidden;rotatable=0;points=[[0,0.5],[1,0.5]];portConstraint=eastwest;whiteSpace=wrap;html=1;" parent="fECDbQGhn2Nu8HvRsYtQ-123" vertex="1">
          <mxGeometry y="52" width="240" height="26" as="geometry" />
        </mxCell>
        <mxCell id="fECDbQGhn2Nu8HvRsYtQ-126" value="ubicacion: string" style="text;strokeColor=none;fillColor=none;align=left;verticalAlign=top;spacingLeft=4;spacingRight=4;overflow=hidden;rotatable=0;points=[[0,0.5],[1,0.5]];portConstraint=eastwest;whiteSpace=wrap;html=1;" parent="fECDbQGhn2Nu8HvRsYtQ-123" vertex="1">
          <mxGeometry y="78" width="240" height="26" as="geometry" />
        </mxCell>
        <mxCell id="JHWDTWZnFsFwWDoPUUQF-19" value="idLugar: FK lugar" style="text;strokeColor=none;fillColor=none;spacingLeft=4;spacingRight=4;overflow=hidden;rotatable=0;points=[[0,0.5],[1,0.5]];portConstraint=eastwest;fontSize=12;whiteSpace=wrap;html=1;" parent="fECDbQGhn2Nu8HvRsYtQ-123" vertex="1">
          <mxGeometry y="104" width="240" height="30" as="geometry" />
        </mxCell>
        <mxCell id="fECDbQGhn2Nu8HvRsYtQ-131" value="Aula" style="swimlane;fontStyle=0;childLayout=stackLayout;horizontal=1;startSize=26;fillColor=none;horizontalStack=0;resizeParent=1;resizeParentMax=0;resizeLast=0;collapsible=1;marginBottom=0;whiteSpace=wrap;html=1;" parent="1" vertex="1">
          <mxGeometry x="880" y="846" width="160" height="134" as="geometry" />
        </mxCell>
        <mxCell id="fECDbQGhn2Nu8HvRsYtQ-132" value="idAula: int" style="text;strokeColor=none;fillColor=none;align=left;verticalAlign=top;spacingLeft=4;spacingRight=4;overflow=hidden;rotatable=0;points=[[0,0.5],[1,0.5]];portConstraint=eastwest;whiteSpace=wrap;html=1;" parent="fECDbQGhn2Nu8HvRsYtQ-131" vertex="1">
          <mxGeometry y="26" width="160" height="26" as="geometry" />
        </mxCell>
        <mxCell id="fECDbQGhn2Nu8HvRsYtQ-133" value="baja: boolean" style="text;strokeColor=none;fillColor=none;align=left;verticalAlign=top;spacingLeft=4;spacingRight=4;overflow=hidden;rotatable=0;points=[[0,0.5],[1,0.5]];portConstraint=eastwest;whiteSpace=wrap;html=1;" parent="fECDbQGhn2Nu8HvRsYtQ-131" vertex="1">
          <mxGeometry y="52" width="160" height="26" as="geometry" />
        </mxCell>
        <mxCell id="fECDbQGhn2Nu8HvRsYtQ-134" value="idEdificio: FK edificio" style="text;strokeColor=none;fillColor=none;align=left;verticalAlign=top;spacingLeft=4;spacingRight=4;overflow=hidden;rotatable=0;points=[[0,0.5],[1,0.5]];portConstraint=eastwest;whiteSpace=wrap;html=1;" parent="fECDbQGhn2Nu8HvRsYtQ-131" vertex="1">
          <mxGeometry y="78" width="160" height="26" as="geometry" />
        </mxCell>
        <mxCell id="JHWDTWZnFsFwWDoPUUQF-53" value="idLugar: (FK) lugar" style="text;strokeColor=none;fillColor=none;spacingLeft=4;spacingRight=4;overflow=hidden;rotatable=0;points=[[0,0.5],[1,0.5]];portConstraint=eastwest;fontSize=12;whiteSpace=wrap;html=1;" parent="fECDbQGhn2Nu8HvRsYtQ-131" vertex="1">
          <mxGeometry y="104" width="160" height="30" as="geometry" />
        </mxCell>
        <mxCell id="fECDbQGhn2Nu8HvRsYtQ-139" value="estacionamiento" style="swimlane;fontStyle=0;childLayout=stackLayout;horizontal=1;startSize=26;fillColor=none;horizontalStack=0;resizeParent=1;resizeParentMax=0;resizeLast=0;collapsible=1;marginBottom=0;whiteSpace=wrap;html=1;" parent="1" vertex="1">
          <mxGeometry x="1170" y="850" width="140" height="160" as="geometry" />
        </mxCell>
        <mxCell id="fECDbQGhn2Nu8HvRsYtQ-140" value="idEstacionamiento: int" style="text;strokeColor=none;fillColor=none;align=left;verticalAlign=top;spacingLeft=4;spacingRight=4;overflow=hidden;rotatable=0;points=[[0,0.5],[1,0.5]];portConstraint=eastwest;whiteSpace=wrap;html=1;" parent="fECDbQGhn2Nu8HvRsYtQ-139" vertex="1">
          <mxGeometry y="26" width="140" height="26" as="geometry" />
        </mxCell>
        <mxCell id="fECDbQGhn2Nu8HvRsYtQ-141" value="baja: boolean" style="text;strokeColor=none;fillColor=none;align=left;verticalAlign=top;spacingLeft=4;spacingRight=4;overflow=hidden;rotatable=0;points=[[0,0.5],[1,0.5]];portConstraint=eastwest;whiteSpace=wrap;html=1;" parent="fECDbQGhn2Nu8HvRsYtQ-139" vertex="1">
          <mxGeometry y="52" width="140" height="26" as="geometry" />
        </mxCell>
        <mxCell id="fECDbQGhn2Nu8HvRsYtQ-142" value="idParking: (FK) parking" style="text;strokeColor=none;fillColor=none;align=left;verticalAlign=top;spacingLeft=4;spacingRight=4;overflow=hidden;rotatable=0;points=[[0,0.5],[1,0.5]];portConstraint=eastwest;whiteSpace=wrap;html=1;" parent="fECDbQGhn2Nu8HvRsYtQ-139" vertex="1">
          <mxGeometry y="78" width="140" height="26" as="geometry" />
        </mxCell>
        <mxCell id="fECDbQGhn2Nu8HvRsYtQ-143" value="libre: boolean" style="text;strokeColor=none;fillColor=none;align=left;verticalAlign=top;spacingLeft=4;spacingRight=4;overflow=hidden;rotatable=0;points=[[0,0.5],[1,0.5]];portConstraint=eastwest;whiteSpace=wrap;html=1;" parent="fECDbQGhn2Nu8HvRsYtQ-139" vertex="1">
          <mxGeometry y="104" width="140" height="26" as="geometry" />
        </mxCell>
        <mxCell id="JHWDTWZnFsFwWDoPUUQF-52" value="idLugar: (FK) lugar" style="text;strokeColor=none;fillColor=none;spacingLeft=4;spacingRight=4;overflow=hidden;rotatable=0;points=[[0,0.5],[1,0.5]];portConstraint=eastwest;fontSize=12;whiteSpace=wrap;html=1;" parent="fECDbQGhn2Nu8HvRsYtQ-139" vertex="1">
          <mxGeometry y="130" width="140" height="30" as="geometry" />
        </mxCell>
        <mxCell id="fECDbQGhn2Nu8HvRsYtQ-146" value="espacioVerde" style="swimlane;fontStyle=0;childLayout=stackLayout;horizontal=1;startSize=26;fillColor=none;horizontalStack=0;resizeParent=1;resizeParentMax=0;resizeLast=0;collapsible=1;marginBottom=0;whiteSpace=wrap;html=1;" parent="1" vertex="1">
          <mxGeometry x="1460" y="610" width="160" height="108" as="geometry" />
        </mxCell>
        <mxCell id="fECDbQGhn2Nu8HvRsYtQ-147" value="idEspacioVerde: int" style="text;strokeColor=none;fillColor=none;align=left;verticalAlign=top;spacingLeft=4;spacingRight=4;overflow=hidden;rotatable=0;points=[[0,0.5],[1,0.5]];portConstraint=eastwest;whiteSpace=wrap;html=1;" parent="fECDbQGhn2Nu8HvRsYtQ-146" vertex="1">
          <mxGeometry y="26" width="160" height="26" as="geometry" />
        </mxCell>
        <mxCell id="fECDbQGhn2Nu8HvRsYtQ-148" value="baja: boolean" style="text;strokeColor=none;fillColor=none;align=left;verticalAlign=top;spacingLeft=4;spacingRight=4;overflow=hidden;rotatable=0;points=[[0,0.5],[1,0.5]];portConstraint=eastwest;whiteSpace=wrap;html=1;" parent="fECDbQGhn2Nu8HvRsYtQ-146" vertex="1">
          <mxGeometry y="52" width="160" height="26" as="geometry" />
        </mxCell>
        <mxCell id="JHWDTWZnFsFwWDoPUUQF-20" value="idLugar: FK lugar" style="text;strokeColor=none;fillColor=none;spacingLeft=4;spacingRight=4;overflow=hidden;rotatable=0;points=[[0,0.5],[1,0.5]];portConstraint=eastwest;fontSize=12;whiteSpace=wrap;html=1;" parent="fECDbQGhn2Nu8HvRsYtQ-146" vertex="1">
          <mxGeometry y="78" width="160" height="30" as="geometry" />
        </mxCell>
        <mxCell id="fECDbQGhn2Nu8HvRsYtQ-179" value="DataBase" style="text;html=1;align=center;verticalAlign=middle;resizable=0;points=[];autosize=1;strokeColor=none;fillColor=none;fontSize=120;" parent="1" vertex="1">
          <mxGeometry x="965" y="40" width="550" height="160" as="geometry" />
        </mxCell>
        <mxCell id="fECDbQGhn2Nu8HvRsYtQ-180" value="Entity" style="text;html=1;align=center;verticalAlign=middle;resizable=0;points=[];autosize=1;strokeColor=none;fillColor=none;fontSize=120;" parent="1" vertex="1">
          <mxGeometry x="254" y="40" width="320" height="160" as="geometry" />
        </mxCell>
        <mxCell id="fECDbQGhn2Nu8HvRsYtQ-181" value="" style="endArrow=none;html=1;rounded=0;strokeWidth=6;" parent="1" edge="1">
          <mxGeometry width="50" height="50" relative="1" as="geometry">
            <mxPoint x="827" y="1163" as="sourcePoint" />
            <mxPoint x="827" y="4" as="targetPoint" />
          </mxGeometry>
        </mxCell>
        <mxCell id="JHWDTWZnFsFwWDoPUUQF-28" style="edgeStyle=orthogonalEdgeStyle;rounded=0;orthogonalLoop=1;jettySize=auto;html=1;" parent="1" source="JHWDTWZnFsFwWDoPUUQF-1" target="fECDbQGhn2Nu8HvRsYtQ-123" edge="1">
          <mxGeometry relative="1" as="geometry" />
        </mxCell>
        <mxCell id="JHWDTWZnFsFwWDoPUUQF-29" style="edgeStyle=orthogonalEdgeStyle;rounded=0;orthogonalLoop=1;jettySize=auto;html=1;" parent="1" source="JHWDTWZnFsFwWDoPUUQF-1" target="fECDbQGhn2Nu8HvRsYtQ-116" edge="1">
          <mxGeometry relative="1" as="geometry" />
        </mxCell>
        <mxCell id="JHWDTWZnFsFwWDoPUUQF-30" style="edgeStyle=orthogonalEdgeStyle;rounded=0;orthogonalLoop=1;jettySize=auto;html=1;" parent="1" source="JHWDTWZnFsFwWDoPUUQF-1" target="fECDbQGhn2Nu8HvRsYtQ-146" edge="1">
          <mxGeometry relative="1" as="geometry">
            <Array as="points">
              <mxPoint x="1540" y="500" />
            </Array>
          </mxGeometry>
        </mxCell>
        <mxCell id="JHWDTWZnFsFwWDoPUUQF-54" style="edgeStyle=orthogonalEdgeStyle;rounded=0;orthogonalLoop=1;jettySize=auto;html=1;" parent="1" source="JHWDTWZnFsFwWDoPUUQF-1" target="fECDbQGhn2Nu8HvRsYtQ-139" edge="1">
          <mxGeometry relative="1" as="geometry">
            <Array as="points">
              <mxPoint x="1100" y="490" />
              <mxPoint x="1100" y="810" />
              <mxPoint x="1240" y="810" />
            </Array>
          </mxGeometry>
        </mxCell>
        <mxCell id="JHWDTWZnFsFwWDoPUUQF-55" style="edgeStyle=orthogonalEdgeStyle;rounded=0;orthogonalLoop=1;jettySize=auto;html=1;" parent="1" source="JHWDTWZnFsFwWDoPUUQF-1" target="fECDbQGhn2Nu8HvRsYtQ-131" edge="1">
          <mxGeometry relative="1" as="geometry">
            <Array as="points">
              <mxPoint x="870" y="460" />
              <mxPoint x="870" y="913" />
            </Array>
          </mxGeometry>
        </mxCell>
        <mxCell id="lJARf1unVdm2dJaWPQnQ-4" style="edgeStyle=orthogonalEdgeStyle;rounded=0;orthogonalLoop=1;jettySize=auto;html=1;" edge="1" parent="1" source="JHWDTWZnFsFwWDoPUUQF-1" target="lJARf1unVdm2dJaWPQnQ-3">
          <mxGeometry relative="1" as="geometry" />
        </mxCell>
        <mxCell id="JHWDTWZnFsFwWDoPUUQF-1" value="lugar" style="swimlane;fontStyle=0;childLayout=stackLayout;horizontal=1;startSize=26;fillColor=none;horizontalStack=0;resizeParent=1;resizeParentMax=0;resizeLast=0;collapsible=1;marginBottom=0;whiteSpace=wrap;html=1;" parent="1" vertex="1">
          <mxGeometry x="1161" y="430" width="160" height="78" as="geometry" />
        </mxCell>
        <mxCell id="JHWDTWZnFsFwWDoPUUQF-2" value="idLugar: int" style="text;strokeColor=none;fillColor=none;align=left;verticalAlign=top;spacingLeft=4;spacingRight=4;overflow=hidden;rotatable=0;points=[[0,0.5],[1,0.5]];portConstraint=eastwest;whiteSpace=wrap;html=1;" parent="JHWDTWZnFsFwWDoPUUQF-1" vertex="1">
          <mxGeometry y="26" width="160" height="26" as="geometry" />
        </mxCell>
        <mxCell id="JHWDTWZnFsFwWDoPUUQF-4" value="nombreLugar: String" style="text;strokeColor=none;fillColor=none;align=left;verticalAlign=top;spacingLeft=4;spacingRight=4;overflow=hidden;rotatable=0;points=[[0,0.5],[1,0.5]];portConstraint=eastwest;whiteSpace=wrap;html=1;" parent="JHWDTWZnFsFwWDoPUUQF-1" vertex="1">
          <mxGeometry y="52" width="160" height="26" as="geometry" />
        </mxCell>
        <mxCell id="JHWDTWZnFsFwWDoPUUQF-9" value="sensor" style="swimlane;fontStyle=0;childLayout=stackLayout;horizontal=1;startSize=26;horizontalStack=0;resizeParent=1;resizeParentMax=0;resizeLast=0;collapsible=1;marginBottom=0;align=center;fontSize=14;" parent="1" vertex="1">
          <mxGeometry x="1440" y="250" width="160" height="138" as="geometry" />
        </mxCell>
        <mxCell id="JHWDTWZnFsFwWDoPUUQF-10" value="idSensor: int" style="text;strokeColor=none;fillColor=none;spacingLeft=4;spacingRight=4;overflow=hidden;rotatable=0;points=[[0,0.5],[1,0.5]];portConstraint=eastwest;fontSize=12;whiteSpace=wrap;html=1;" parent="JHWDTWZnFsFwWDoPUUQF-9" vertex="1">
          <mxGeometry y="26" width="160" height="30" as="geometry" />
        </mxCell>
        <mxCell id="JHWDTWZnFsFwWDoPUUQF-11" value="nombreSensor: string" style="text;strokeColor=none;fillColor=none;spacingLeft=4;spacingRight=4;overflow=hidden;rotatable=0;points=[[0,0.5],[1,0.5]];portConstraint=eastwest;fontSize=12;whiteSpace=wrap;html=1;" parent="JHWDTWZnFsFwWDoPUUQF-9" vertex="1">
          <mxGeometry y="56" width="160" height="30" as="geometry" />
        </mxCell>
        <mxCell id="lJARf1unVdm2dJaWPQnQ-2" value="activo: boolean" style="text;strokeColor=none;fillColor=none;align=left;verticalAlign=top;spacingLeft=4;spacingRight=4;overflow=hidden;rotatable=0;points=[[0,0.5],[1,0.5]];portConstraint=eastwest;whiteSpace=wrap;html=1;" vertex="1" parent="JHWDTWZnFsFwWDoPUUQF-9">
          <mxGeometry y="86" width="160" height="26" as="geometry" />
        </mxCell>
        <mxCell id="lJARf1unVdm2dJaWPQnQ-3" value="idLugar: FK lugar" style="text;strokeColor=none;fillColor=none;align=left;verticalAlign=top;spacingLeft=4;spacingRight=4;overflow=hidden;rotatable=0;points=[[0,0.5],[1,0.5]];portConstraint=eastwest;whiteSpace=wrap;html=1;" vertex="1" parent="JHWDTWZnFsFwWDoPUUQF-9">
          <mxGeometry y="112" width="160" height="26" as="geometry" />
        </mxCell>
        <mxCell id="JHWDTWZnFsFwWDoPUUQF-22" value="" style="edgeStyle=entityRelationEdgeStyle;fontSize=12;html=1;endArrow=ERoneToMany;rounded=0;" parent="1" source="JHWDTWZnFsFwWDoPUUQF-21" target="fECDbQGhn2Nu8HvRsYtQ-131" edge="1">
          <mxGeometry width="100" height="100" relative="1" as="geometry">
            <mxPoint x="1180" y="900" as="sourcePoint" />
            <mxPoint x="1280" y="800" as="targetPoint" />
          </mxGeometry>
        </mxCell>
        <mxCell id="JHWDTWZnFsFwWDoPUUQF-23" value="" style="edgeStyle=entityRelationEdgeStyle;fontSize=12;html=1;endArrow=ERoneToMany;rounded=0;" parent="1" source="fECDbQGhn2Nu8HvRsYtQ-124" target="fECDbQGhn2Nu8HvRsYtQ-142" edge="1">
          <mxGeometry width="100" height="100" relative="1" as="geometry">
            <mxPoint x="1050" y="713" as="sourcePoint" />
            <mxPoint x="1050" y="908" as="targetPoint" />
          </mxGeometry>
        </mxCell>
        <mxCell id="JHWDTWZnFsFwWDoPUUQF-31" value="variables nombreSensor" style="swimlane;fontStyle=0;childLayout=stackLayout;horizontal=1;startSize=26;horizontalStack=0;resizeParent=1;resizeParentMax=0;resizeLast=0;collapsible=1;marginBottom=0;align=center;fontSize=14;" parent="1" vertex="1">
          <mxGeometry x="1030" y="231" width="180" height="112" as="geometry" />
        </mxCell>
        <mxCell id="JHWDTWZnFsFwWDoPUUQF-32" value="Sensor báscula" style="text;strokeColor=none;fillColor=none;spacingLeft=4;spacingRight=4;overflow=hidden;rotatable=0;points=[[0,0.5],[1,0.5]];portConstraint=eastwest;fontSize=12;whiteSpace=wrap;html=1;" parent="JHWDTWZnFsFwWDoPUUQF-31" vertex="1">
          <mxGeometry y="26" width="180" height="20" as="geometry" />
        </mxCell>
        <mxCell id="JHWDTWZnFsFwWDoPUUQF-33" value="Sensor humedad" style="text;strokeColor=none;fillColor=none;spacingLeft=4;spacingRight=4;overflow=hidden;rotatable=0;points=[[0,0.5],[1,0.5]];portConstraint=eastwest;fontSize=12;whiteSpace=wrap;html=1;" parent="JHWDTWZnFsFwWDoPUUQF-31" vertex="1">
          <mxGeometry y="46" width="180" height="20" as="geometry" />
        </mxCell>
        <mxCell id="JHWDTWZnFsFwWDoPUUQF-34" value="Sensor camara" style="text;strokeColor=none;fillColor=none;spacingLeft=4;spacingRight=4;overflow=hidden;rotatable=0;points=[[0,0.5],[1,0.5]];portConstraint=eastwest;fontSize=12;whiteSpace=wrap;html=1;" parent="JHWDTWZnFsFwWDoPUUQF-31" vertex="1">
          <mxGeometry y="66" width="180" height="20" as="geometry" />
        </mxCell>
        <mxCell id="JHWDTWZnFsFwWDoPUUQF-35" value="Sensor tiempo" style="text;strokeColor=none;fillColor=none;spacingLeft=4;spacingRight=4;overflow=hidden;rotatable=0;points=[[0,0.5],[1,0.5]];portConstraint=eastwest;fontSize=12;whiteSpace=wrap;html=1;" parent="JHWDTWZnFsFwWDoPUUQF-31" vertex="1">
          <mxGeometry y="86" width="180" height="26" as="geometry" />
        </mxCell>
        <mxCell id="JHWDTWZnFsFwWDoPUUQF-41" value="variables nombreLugar" style="swimlane;fontStyle=0;childLayout=stackLayout;horizontal=1;startSize=26;horizontalStack=0;resizeParent=1;resizeParentMax=0;resizeLast=0;collapsible=1;marginBottom=0;align=center;fontSize=14;" parent="1" vertex="1">
          <mxGeometry x="850" y="231" width="180" height="126" as="geometry" />
        </mxCell>
        <mxCell id="JHWDTWZnFsFwWDoPUUQF-42" value="Edificio" style="text;strokeColor=none;fillColor=none;spacingLeft=4;spacingRight=4;overflow=hidden;rotatable=0;points=[[0,0.5],[1,0.5]];portConstraint=eastwest;fontSize=12;whiteSpace=wrap;html=1;" parent="JHWDTWZnFsFwWDoPUUQF-41" vertex="1">
          <mxGeometry y="26" width="180" height="20" as="geometry" />
        </mxCell>
        <mxCell id="JHWDTWZnFsFwWDoPUUQF-43" value="Aula" style="text;strokeColor=none;fillColor=none;spacingLeft=4;spacingRight=4;overflow=hidden;rotatable=0;points=[[0,0.5],[1,0.5]];portConstraint=eastwest;fontSize=12;whiteSpace=wrap;html=1;" parent="JHWDTWZnFsFwWDoPUUQF-41" vertex="1">
          <mxGeometry y="46" width="180" height="20" as="geometry" />
        </mxCell>
        <mxCell id="JHWDTWZnFsFwWDoPUUQF-44" value="Parking" style="text;strokeColor=none;fillColor=none;spacingLeft=4;spacingRight=4;overflow=hidden;rotatable=0;points=[[0,0.5],[1,0.5]];portConstraint=eastwest;fontSize=12;whiteSpace=wrap;html=1;" parent="JHWDTWZnFsFwWDoPUUQF-41" vertex="1">
          <mxGeometry y="66" width="180" height="20" as="geometry" />
        </mxCell>
        <mxCell id="JHWDTWZnFsFwWDoPUUQF-45" value="Estacionamiento" style="text;strokeColor=none;fillColor=none;spacingLeft=4;spacingRight=4;overflow=hidden;rotatable=0;points=[[0,0.5],[1,0.5]];portConstraint=eastwest;fontSize=12;whiteSpace=wrap;html=1;" parent="JHWDTWZnFsFwWDoPUUQF-41" vertex="1">
          <mxGeometry y="86" width="180" height="20" as="geometry" />
        </mxCell>
        <mxCell id="JHWDTWZnFsFwWDoPUUQF-51" value="Espacio verde" style="text;strokeColor=none;fillColor=none;spacingLeft=4;spacingRight=4;overflow=hidden;rotatable=0;points=[[0,0.5],[1,0.5]];portConstraint=eastwest;fontSize=12;whiteSpace=wrap;html=1;" parent="JHWDTWZnFsFwWDoPUUQF-41" vertex="1">
          <mxGeometry y="106" width="180" height="20" as="geometry" />
        </mxCell>
        <mxCell id="JHWDTWZnFsFwWDoPUUQF-62" value="Edificio" style="swimlane;fontStyle=1;align=center;verticalAlign=top;childLayout=stackLayout;horizontal=1;startSize=24;horizontalStack=0;resizeParent=1;resizeParentMax=0;resizeLast=0;collapsible=1;marginBottom=0;whiteSpace=wrap;html=1;" parent="1" vertex="1">
          <mxGeometry x="-30" y="336" width="200" height="162" as="geometry" />
        </mxCell>
        <mxCell id="JHWDTWZnFsFwWDoPUUQF-63" value="- idEdificio: int" style="text;strokeColor=none;fillColor=none;align=left;verticalAlign=top;spacingLeft=4;spacingRight=4;overflow=hidden;rotatable=0;points=[[0,0.5],[1,0.5]];portConstraint=eastwest;whiteSpace=wrap;html=1;" parent="JHWDTWZnFsFwWDoPUUQF-62" vertex="1">
          <mxGeometry y="24" width="200" height="26" as="geometry" />
        </mxCell>
        <mxCell id="JHWDTWZnFsFwWDoPUUQF-66" value="- nombre: String" style="text;strokeColor=none;fillColor=none;align=left;verticalAlign=top;spacingLeft=4;spacingRight=4;overflow=hidden;rotatable=0;points=[[0,0.5],[1,0.5]];portConstraint=eastwest;whiteSpace=wrap;html=1;" parent="JHWDTWZnFsFwWDoPUUQF-62" vertex="1">
          <mxGeometry y="50" width="200" height="26" as="geometry" />
        </mxCell>
        <mxCell id="JHWDTWZnFsFwWDoPUUQF-68" value="- aulas: Set&amp;lt;Aula&amp;gt;" style="text;strokeColor=none;fillColor=none;align=left;verticalAlign=top;spacingLeft=4;spacingRight=4;overflow=hidden;rotatable=0;points=[[0,0.5],[1,0.5]];portConstraint=eastwest;whiteSpace=wrap;html=1;" parent="JHWDTWZnFsFwWDoPUUQF-62" vertex="1">
          <mxGeometry y="76" width="200" height="26" as="geometry" />
        </mxCell>
        <mxCell id="JHWDTWZnFsFwWDoPUUQF-64" value="" style="line;strokeWidth=1;fillColor=none;align=left;verticalAlign=middle;spacingTop=-1;spacingLeft=3;spacingRight=3;rotatable=0;labelPosition=right;points=[];portConstraint=eastwest;strokeColor=inherit;" parent="JHWDTWZnFsFwWDoPUUQF-62" vertex="1">
          <mxGeometry y="102" width="200" height="8" as="geometry" />
        </mxCell>
        <mxCell id="JHWDTWZnFsFwWDoPUUQF-65" value="+lucesEncendidas(): boolean" style="text;strokeColor=none;fillColor=none;align=left;verticalAlign=top;spacingLeft=4;spacingRight=4;overflow=hidden;rotatable=0;points=[[0,0.5],[1,0.5]];portConstraint=eastwest;whiteSpace=wrap;html=1;" parent="JHWDTWZnFsFwWDoPUUQF-62" vertex="1">
          <mxGeometry y="110" width="200" height="26" as="geometry" />
        </mxCell>
        <mxCell id="JHWDTWZnFsFwWDoPUUQF-84" value="+estaAbierto(): boolean" style="text;strokeColor=none;fillColor=none;align=left;verticalAlign=top;spacingLeft=4;spacingRight=4;overflow=hidden;rotatable=0;points=[[0,0.5],[1,0.5]];portConstraint=eastwest;whiteSpace=wrap;html=1;" parent="JHWDTWZnFsFwWDoPUUQF-62" vertex="1">
          <mxGeometry y="136" width="200" height="26" as="geometry" />
        </mxCell>
        <mxCell id="JHWDTWZnFsFwWDoPUUQF-69" value="Parking" style="swimlane;fontStyle=1;align=center;verticalAlign=top;childLayout=stackLayout;horizontal=1;startSize=26;horizontalStack=0;resizeParent=1;resizeParentMax=0;resizeLast=0;collapsible=1;marginBottom=0;whiteSpace=wrap;html=1;" parent="1" vertex="1">
          <mxGeometry x="480" y="344" width="260" height="164" as="geometry" />
        </mxCell>
        <mxCell id="JHWDTWZnFsFwWDoPUUQF-70" value="- idParking: int" style="text;strokeColor=none;fillColor=none;align=left;verticalAlign=top;spacingLeft=4;spacingRight=4;overflow=hidden;rotatable=0;points=[[0,0.5],[1,0.5]];portConstraint=eastwest;whiteSpace=wrap;html=1;" parent="JHWDTWZnFsFwWDoPUUQF-69" vertex="1">
          <mxGeometry y="26" width="260" height="26" as="geometry" />
        </mxCell>
        <mxCell id="JHWDTWZnFsFwWDoPUUQF-71" value="- baja: boolean" style="text;strokeColor=none;fillColor=none;align=left;verticalAlign=top;spacingLeft=4;spacingRight=4;overflow=hidden;rotatable=0;points=[[0,0.5],[1,0.5]];portConstraint=eastwest;whiteSpace=wrap;html=1;" parent="JHWDTWZnFsFwWDoPUUQF-69" vertex="1">
          <mxGeometry y="52" width="260" height="26" as="geometry" />
        </mxCell>
        <mxCell id="JHWDTWZnFsFwWDoPUUQF-76" value="- ubicacion: String" style="text;strokeColor=none;fillColor=none;align=left;verticalAlign=top;spacingLeft=4;spacingRight=4;overflow=hidden;rotatable=0;points=[[0,0.5],[1,0.5]];portConstraint=eastwest;whiteSpace=wrap;html=1;" parent="JHWDTWZnFsFwWDoPUUQF-69" vertex="1">
          <mxGeometry y="78" width="260" height="26" as="geometry" />
        </mxCell>
        <mxCell id="JHWDTWZnFsFwWDoPUUQF-73" value="- estacionamientos: Set&amp;lt;Estacionamiento&amp;gt;" style="text;strokeColor=none;fillColor=none;align=left;verticalAlign=top;spacingLeft=4;spacingRight=4;overflow=hidden;rotatable=0;points=[[0,0.5],[1,0.5]];portConstraint=eastwest;whiteSpace=wrap;html=1;" parent="JHWDTWZnFsFwWDoPUUQF-69" vertex="1">
          <mxGeometry y="104" width="260" height="26" as="geometry" />
        </mxCell>
        <mxCell id="JHWDTWZnFsFwWDoPUUQF-74" value="" style="line;strokeWidth=1;fillColor=none;align=left;verticalAlign=middle;spacingTop=-1;spacingLeft=3;spacingRight=3;rotatable=0;labelPosition=right;points=[];portConstraint=eastwest;strokeColor=inherit;" parent="JHWDTWZnFsFwWDoPUUQF-69" vertex="1">
          <mxGeometry y="130" width="260" height="8" as="geometry" />
        </mxCell>
        <mxCell id="JHWDTWZnFsFwWDoPUUQF-75" value="+lucesEncendidas(): boolean" style="text;strokeColor=none;fillColor=none;align=left;verticalAlign=top;spacingLeft=4;spacingRight=4;overflow=hidden;rotatable=0;points=[[0,0.5],[1,0.5]];portConstraint=eastwest;whiteSpace=wrap;html=1;" parent="JHWDTWZnFsFwWDoPUUQF-69" vertex="1">
          <mxGeometry y="138" width="260" height="26" as="geometry" />
        </mxCell>
        <mxCell id="JHWDTWZnFsFwWDoPUUQF-77" value="EspacioVerde" style="swimlane;fontStyle=1;align=center;verticalAlign=top;childLayout=stackLayout;horizontal=1;startSize=26;horizontalStack=0;resizeParent=1;resizeParentMax=0;resizeLast=0;collapsible=1;marginBottom=0;whiteSpace=wrap;html=1;" parent="1" vertex="1">
          <mxGeometry x="200" y="318" width="200" height="216" as="geometry" />
        </mxCell>
        <mxCell id="JHWDTWZnFsFwWDoPUUQF-78" value="- idEspacioVerde: int" style="text;strokeColor=none;fillColor=none;align=left;verticalAlign=top;spacingLeft=4;spacingRight=4;overflow=hidden;rotatable=0;points=[[0,0.5],[1,0.5]];portConstraint=eastwest;whiteSpace=wrap;html=1;" parent="JHWDTWZnFsFwWDoPUUQF-77" vertex="1">
          <mxGeometry y="26" width="200" height="26" as="geometry" />
        </mxCell>
        <mxCell id="JHWDTWZnFsFwWDoPUUQF-79" value="- ubicacion: String" style="text;strokeColor=none;fillColor=none;align=left;verticalAlign=top;spacingLeft=4;spacingRight=4;overflow=hidden;rotatable=0;points=[[0,0.5],[1,0.5]];portConstraint=eastwest;whiteSpace=wrap;html=1;" parent="JHWDTWZnFsFwWDoPUUQF-77" vertex="1">
          <mxGeometry y="52" width="200" height="26" as="geometry" />
        </mxCell>
        <mxCell id="JHWDTWZnFsFwWDoPUUQF-81" value="- aulas: Set&amp;lt;Aula&amp;gt;" style="text;strokeColor=none;fillColor=none;align=left;verticalAlign=top;spacingLeft=4;spacingRight=4;overflow=hidden;rotatable=0;points=[[0,0.5],[1,0.5]];portConstraint=eastwest;whiteSpace=wrap;html=1;" parent="JHWDTWZnFsFwWDoPUUQF-77" vertex="1">
          <mxGeometry y="78" width="200" height="26" as="geometry" />
        </mxCell>
        <mxCell id="JHWDTWZnFsFwWDoPUUQF-82" value="" style="line;strokeWidth=1;fillColor=none;align=left;verticalAlign=middle;spacingTop=-1;spacingLeft=3;spacingRight=3;rotatable=0;labelPosition=right;points=[];portConstraint=eastwest;strokeColor=inherit;" parent="JHWDTWZnFsFwWDoPUUQF-77" vertex="1">
          <mxGeometry y="104" width="200" height="8" as="geometry" />
        </mxCell>
        <mxCell id="JHWDTWZnFsFwWDoPUUQF-83" value="+lucesEncendidas(): boolean" style="text;strokeColor=none;fillColor=none;align=left;verticalAlign=top;spacingLeft=4;spacingRight=4;overflow=hidden;rotatable=0;points=[[0,0.5],[1,0.5]];portConstraint=eastwest;whiteSpace=wrap;html=1;" parent="JHWDTWZnFsFwWDoPUUQF-77" vertex="1">
          <mxGeometry y="112" width="200" height="26" as="geometry" />
        </mxCell>
        <mxCell id="JHWDTWZnFsFwWDoPUUQF-116" value="+ nivelHumedad(): double" style="text;strokeColor=none;fillColor=none;align=left;verticalAlign=top;spacingLeft=4;spacingRight=4;overflow=hidden;rotatable=0;points=[[0,0.5],[1,0.5]];portConstraint=eastwest;whiteSpace=wrap;html=1;" parent="JHWDTWZnFsFwWDoPUUQF-77" vertex="1">
          <mxGeometry y="138" width="200" height="26" as="geometry" />
        </mxCell>
        <mxCell id="JHWDTWZnFsFwWDoPUUQF-117" value="+ hayHumedadAlta(): boolean" style="text;strokeColor=none;fillColor=none;align=left;verticalAlign=top;spacingLeft=4;spacingRight=4;overflow=hidden;rotatable=0;points=[[0,0.5],[1,0.5]];portConstraint=eastwest;whiteSpace=wrap;html=1;" parent="JHWDTWZnFsFwWDoPUUQF-77" vertex="1">
          <mxGeometry y="164" width="200" height="26" as="geometry" />
        </mxCell>
        <mxCell id="JHWDTWZnFsFwWDoPUUQF-126" value="+ hayHumedadBaja(): boolean" style="text;strokeColor=none;fillColor=none;align=left;verticalAlign=top;spacingLeft=4;spacingRight=4;overflow=hidden;rotatable=0;points=[[0,0.5],[1,0.5]];portConstraint=eastwest;whiteSpace=wrap;html=1;" parent="JHWDTWZnFsFwWDoPUUQF-77" vertex="1">
          <mxGeometry y="190" width="200" height="26" as="geometry" />
        </mxCell>
        <mxCell id="JHWDTWZnFsFwWDoPUUQF-85" value="Estacionamiento" style="swimlane;fontStyle=1;align=center;verticalAlign=top;childLayout=stackLayout;horizontal=1;startSize=26;horizontalStack=0;resizeParent=1;resizeParentMax=0;resizeLast=0;collapsible=1;marginBottom=0;whiteSpace=wrap;html=1;" parent="1" vertex="1">
          <mxGeometry x="610" y="585" width="200" height="164" as="geometry" />
        </mxCell>
        <mxCell id="JHWDTWZnFsFwWDoPUUQF-86" value="- idEstacionamiento: int" style="text;strokeColor=none;fillColor=none;align=left;verticalAlign=top;spacingLeft=4;spacingRight=4;overflow=hidden;rotatable=0;points=[[0,0.5],[1,0.5]];portConstraint=eastwest;whiteSpace=wrap;html=1;" parent="JHWDTWZnFsFwWDoPUUQF-85" vertex="1">
          <mxGeometry y="26" width="200" height="26" as="geometry" />
        </mxCell>
        <mxCell id="JHWDTWZnFsFwWDoPUUQF-87" value="- baja: boolean" style="text;strokeColor=none;fillColor=none;align=left;verticalAlign=top;spacingLeft=4;spacingRight=4;overflow=hidden;rotatable=0;points=[[0,0.5],[1,0.5]];portConstraint=eastwest;whiteSpace=wrap;html=1;" parent="JHWDTWZnFsFwWDoPUUQF-85" vertex="1">
          <mxGeometry y="52" width="200" height="26" as="geometry" />
        </mxCell>
        <mxCell id="JHWDTWZnFsFwWDoPUUQF-88" value="- ubicacion: Parking" style="text;strokeColor=none;fillColor=none;align=left;verticalAlign=top;spacingLeft=4;spacingRight=4;overflow=hidden;rotatable=0;points=[[0,0.5],[1,0.5]];portConstraint=eastwest;whiteSpace=wrap;html=1;" parent="JHWDTWZnFsFwWDoPUUQF-85" vertex="1">
          <mxGeometry y="78" width="200" height="26" as="geometry" />
        </mxCell>
        <mxCell id="JHWDTWZnFsFwWDoPUUQF-90" value="- estacionamientos: Set&amp;lt;Aula&amp;gt;" style="text;strokeColor=none;fillColor=none;align=left;verticalAlign=top;spacingLeft=4;spacingRight=4;overflow=hidden;rotatable=0;points=[[0,0.5],[1,0.5]];portConstraint=eastwest;whiteSpace=wrap;html=1;" parent="JHWDTWZnFsFwWDoPUUQF-85" vertex="1">
          <mxGeometry y="104" width="200" height="26" as="geometry" />
        </mxCell>
        <mxCell id="JHWDTWZnFsFwWDoPUUQF-91" value="" style="line;strokeWidth=1;fillColor=none;align=left;verticalAlign=middle;spacingTop=-1;spacingLeft=3;spacingRight=3;rotatable=0;labelPosition=right;points=[];portConstraint=eastwest;strokeColor=inherit;" parent="JHWDTWZnFsFwWDoPUUQF-85" vertex="1">
          <mxGeometry y="130" width="200" height="8" as="geometry" />
        </mxCell>
        <mxCell id="JHWDTWZnFsFwWDoPUUQF-92" value="+estaOcupado(): boolean" style="text;strokeColor=none;fillColor=none;align=left;verticalAlign=top;spacingLeft=4;spacingRight=4;overflow=hidden;rotatable=0;points=[[0,0.5],[1,0.5]];portConstraint=eastwest;whiteSpace=wrap;html=1;" parent="JHWDTWZnFsFwWDoPUUQF-85" vertex="1">
          <mxGeometry y="138" width="200" height="26" as="geometry" />
        </mxCell>
        <mxCell id="JHWDTWZnFsFwWDoPUUQF-94" value="Aula" style="swimlane;fontStyle=1;align=center;verticalAlign=top;childLayout=stackLayout;horizontal=1;startSize=26;horizontalStack=0;resizeParent=1;resizeParentMax=0;resizeLast=0;collapsible=1;marginBottom=0;whiteSpace=wrap;html=1;" parent="1" vertex="1">
          <mxGeometry x="-230" y="559" width="200" height="216" as="geometry" />
        </mxCell>
        <mxCell id="JHWDTWZnFsFwWDoPUUQF-95" value="- idAula: int" style="text;strokeColor=none;fillColor=none;align=left;verticalAlign=top;spacingLeft=4;spacingRight=4;overflow=hidden;rotatable=0;points=[[0,0.5],[1,0.5]];portConstraint=eastwest;whiteSpace=wrap;html=1;" parent="JHWDTWZnFsFwWDoPUUQF-94" vertex="1">
          <mxGeometry y="26" width="200" height="26" as="geometry" />
        </mxCell>
        <mxCell id="JHWDTWZnFsFwWDoPUUQF-96" value="- numero: int" style="text;strokeColor=none;fillColor=none;align=left;verticalAlign=top;spacingLeft=4;spacingRight=4;overflow=hidden;rotatable=0;points=[[0,0.5],[1,0.5]];portConstraint=eastwest;whiteSpace=wrap;html=1;" parent="JHWDTWZnFsFwWDoPUUQF-94" vertex="1">
          <mxGeometry y="52" width="200" height="26" as="geometry" />
        </mxCell>
        <mxCell id="JHWDTWZnFsFwWDoPUUQF-98" value="- baja: boolean" style="text;strokeColor=none;fillColor=none;align=left;verticalAlign=top;spacingLeft=4;spacingRight=4;overflow=hidden;rotatable=0;points=[[0,0.5],[1,0.5]];portConstraint=eastwest;whiteSpace=wrap;html=1;" parent="JHWDTWZnFsFwWDoPUUQF-94" vertex="1">
          <mxGeometry y="78" width="200" height="26" as="geometry" />
        </mxCell>
        <mxCell id="JHWDTWZnFsFwWDoPUUQF-102" value="- edificio: Edificio" style="text;strokeColor=none;fillColor=none;align=left;verticalAlign=top;spacingLeft=4;spacingRight=4;overflow=hidden;rotatable=0;points=[[0,0.5],[1,0.5]];portConstraint=eastwest;whiteSpace=wrap;html=1;" parent="JHWDTWZnFsFwWDoPUUQF-94" vertex="1">
          <mxGeometry y="104" width="200" height="26" as="geometry" />
        </mxCell>
        <mxCell id="JHWDTWZnFsFwWDoPUUQF-99" value="" style="line;strokeWidth=1;fillColor=none;align=left;verticalAlign=middle;spacingTop=-1;spacingLeft=3;spacingRight=3;rotatable=0;labelPosition=right;points=[];portConstraint=eastwest;strokeColor=inherit;" parent="JHWDTWZnFsFwWDoPUUQF-94" vertex="1">
          <mxGeometry y="130" width="200" height="8" as="geometry" />
        </mxCell>
        <mxCell id="JHWDTWZnFsFwWDoPUUQF-103" value="+ hayGente(): boolean" style="text;strokeColor=none;fillColor=none;align=left;verticalAlign=top;spacingLeft=4;spacingRight=4;overflow=hidden;rotatable=0;points=[[0,0.5],[1,0.5]];portConstraint=eastwest;whiteSpace=wrap;html=1;" parent="JHWDTWZnFsFwWDoPUUQF-94" vertex="1">
          <mxGeometry y="138" width="200" height="26" as="geometry" />
        </mxCell>
        <mxCell id="JHWDTWZnFsFwWDoPUUQF-100" value="+lucesEncendidas(): boolean" style="text;strokeColor=none;fillColor=none;align=left;verticalAlign=top;spacingLeft=4;spacingRight=4;overflow=hidden;rotatable=0;points=[[0,0.5],[1,0.5]];portConstraint=eastwest;whiteSpace=wrap;html=1;" parent="JHWDTWZnFsFwWDoPUUQF-94" vertex="1">
          <mxGeometry y="164" width="200" height="26" as="geometry" />
        </mxCell>
        <mxCell id="JHWDTWZnFsFwWDoPUUQF-101" value="+cortinasAbiertas(): boolean" style="text;strokeColor=none;fillColor=none;align=left;verticalAlign=top;spacingLeft=4;spacingRight=4;overflow=hidden;rotatable=0;points=[[0,0.5],[1,0.5]];portConstraint=eastwest;whiteSpace=wrap;html=1;" parent="JHWDTWZnFsFwWDoPUUQF-94" vertex="1">
          <mxGeometry y="190" width="200" height="26" as="geometry" />
        </mxCell>
        <mxCell id="JHWDTWZnFsFwWDoPUUQF-143" style="edgeStyle=orthogonalEdgeStyle;rounded=0;orthogonalLoop=1;jettySize=auto;html=1;" parent="1" source="JHWDTWZnFsFwWDoPUUQF-112" target="JHWDTWZnFsFwWDoPUUQF-126" edge="1">
          <mxGeometry relative="1" as="geometry">
            <Array as="points">
              <mxPoint x="380" y="560" />
              <mxPoint x="230" y="560" />
            </Array>
          </mxGeometry>
        </mxCell>
        <mxCell id="JHWDTWZnFsFwWDoPUUQF-146" style="edgeStyle=orthogonalEdgeStyle;rounded=0;orthogonalLoop=1;jettySize=auto;html=1;" parent="1" source="JHWDTWZnFsFwWDoPUUQF-112" target="JHWDTWZnFsFwWDoPUUQF-62" edge="1">
          <mxGeometry relative="1" as="geometry">
            <Array as="points">
              <mxPoint x="80" y="650" />
            </Array>
          </mxGeometry>
        </mxCell>
        <mxCell id="JHWDTWZnFsFwWDoPUUQF-147" style="edgeStyle=orthogonalEdgeStyle;rounded=0;orthogonalLoop=1;jettySize=auto;html=1;" parent="1" source="JHWDTWZnFsFwWDoPUUQF-112" target="JHWDTWZnFsFwWDoPUUQF-69" edge="1">
          <mxGeometry relative="1" as="geometry">
            <Array as="points">
              <mxPoint x="580" y="650" />
            </Array>
          </mxGeometry>
        </mxCell>
        <mxCell id="JHWDTWZnFsFwWDoPUUQF-148" style="edgeStyle=orthogonalEdgeStyle;rounded=0;orthogonalLoop=1;jettySize=auto;html=1;" parent="1" source="JHWDTWZnFsFwWDoPUUQF-112" target="JHWDTWZnFsFwWDoPUUQF-127" edge="1">
          <mxGeometry relative="1" as="geometry" />
        </mxCell>
        <mxCell id="JHWDTWZnFsFwWDoPUUQF-149" style="edgeStyle=orthogonalEdgeStyle;rounded=0;orthogonalLoop=1;jettySize=auto;html=1;" parent="1" source="JHWDTWZnFsFwWDoPUUQF-112" target="JHWDTWZnFsFwWDoPUUQF-131" edge="1">
          <mxGeometry relative="1" as="geometry" />
        </mxCell>
        <mxCell id="JHWDTWZnFsFwWDoPUUQF-150" style="edgeStyle=orthogonalEdgeStyle;rounded=0;orthogonalLoop=1;jettySize=auto;html=1;" parent="1" source="JHWDTWZnFsFwWDoPUUQF-112" target="JHWDTWZnFsFwWDoPUUQF-135" edge="1">
          <mxGeometry relative="1" as="geometry">
            <Array as="points">
              <mxPoint x="420" y="860" />
              <mxPoint x="100" y="860" />
            </Array>
          </mxGeometry>
        </mxCell>
        <mxCell id="JHWDTWZnFsFwWDoPUUQF-151" style="edgeStyle=orthogonalEdgeStyle;rounded=0;orthogonalLoop=1;jettySize=auto;html=1;" parent="1" source="JHWDTWZnFsFwWDoPUUQF-112" target="JHWDTWZnFsFwWDoPUUQF-139" edge="1">
          <mxGeometry relative="1" as="geometry">
            <Array as="points">
              <mxPoint x="420" y="860" />
              <mxPoint x="730" y="860" />
            </Array>
          </mxGeometry>
        </mxCell>
        <mxCell id="JHWDTWZnFsFwWDoPUUQF-112" value="Sensor" style="swimlane;fontStyle=1;align=center;verticalAlign=top;childLayout=stackLayout;horizontal=1;startSize=26;horizontalStack=0;resizeParent=1;resizeParentMax=0;resizeLast=0;collapsible=1;marginBottom=0;whiteSpace=wrap;html=1;" parent="1" vertex="1">
          <mxGeometry x="340" y="634" width="160" height="138" as="geometry" />
        </mxCell>
        <mxCell id="JHWDTWZnFsFwWDoPUUQF-113" value="- idSensor: int" style="text;strokeColor=none;fillColor=none;align=left;verticalAlign=top;spacingLeft=4;spacingRight=4;overflow=hidden;rotatable=0;points=[[0,0.5],[1,0.5]];portConstraint=eastwest;whiteSpace=wrap;html=1;" parent="JHWDTWZnFsFwWDoPUUQF-112" vertex="1">
          <mxGeometry y="26" width="160" height="26" as="geometry" />
        </mxCell>
        <mxCell id="JHWDTWZnFsFwWDoPUUQF-115" value="- nombreSensor: String" style="text;strokeColor=none;fillColor=none;align=left;verticalAlign=top;spacingLeft=4;spacingRight=4;overflow=hidden;rotatable=0;points=[[0,0.5],[1,0.5]];portConstraint=eastwest;whiteSpace=wrap;html=1;" parent="JHWDTWZnFsFwWDoPUUQF-112" vertex="1">
          <mxGeometry y="52" width="160" height="26" as="geometry" />
        </mxCell>
        <mxCell id="lJARf1unVdm2dJaWPQnQ-1" value="- activo: boolean" style="text;strokeColor=none;fillColor=none;align=left;verticalAlign=top;spacingLeft=4;spacingRight=4;overflow=hidden;rotatable=0;points=[[0,0.5],[1,0.5]];portConstraint=eastwest;whiteSpace=wrap;html=1;" vertex="1" parent="JHWDTWZnFsFwWDoPUUQF-112">
          <mxGeometry y="78" width="160" height="26" as="geometry" />
        </mxCell>
        <mxCell id="lJARf1unVdm2dJaWPQnQ-5" value="- lugar: Lugar" style="text;strokeColor=none;fillColor=none;align=left;verticalAlign=top;spacingLeft=4;spacingRight=4;overflow=hidden;rotatable=0;points=[[0,0.5],[1,0.5]];portConstraint=eastwest;whiteSpace=wrap;html=1;" vertex="1" parent="JHWDTWZnFsFwWDoPUUQF-112">
          <mxGeometry y="104" width="160" height="26" as="geometry" />
        </mxCell>
        <mxCell id="JHWDTWZnFsFwWDoPUUQF-114" value="" style="line;strokeWidth=1;fillColor=none;align=left;verticalAlign=middle;spacingTop=-1;spacingLeft=3;spacingRight=3;rotatable=0;labelPosition=right;points=[];portConstraint=eastwest;strokeColor=inherit;" parent="JHWDTWZnFsFwWDoPUUQF-112" vertex="1">
          <mxGeometry y="130" width="160" height="8" as="geometry" />
        </mxCell>
        <mxCell id="JHWDTWZnFsFwWDoPUUQF-127" value="SensorBascula" style="swimlane;fontStyle=1;align=center;verticalAlign=top;childLayout=stackLayout;horizontal=1;startSize=26;horizontalStack=0;resizeParent=1;resizeParentMax=0;resizeLast=0;collapsible=1;marginBottom=0;whiteSpace=wrap;html=1;" parent="1" vertex="1">
          <mxGeometry x="450" y="1000" width="160" height="112" as="geometry" />
        </mxCell>
        <mxCell id="JHWDTWZnFsFwWDoPUUQF-129" value="" style="line;strokeWidth=1;fillColor=none;align=left;verticalAlign=middle;spacingTop=-1;spacingLeft=3;spacingRight=3;rotatable=0;labelPosition=right;points=[];portConstraint=eastwest;strokeColor=inherit;" parent="JHWDTWZnFsFwWDoPUUQF-127" vertex="1">
          <mxGeometry y="26" width="160" height="8" as="geometry" />
        </mxCell>
        <mxCell id="JHWDTWZnFsFwWDoPUUQF-128" value="+ pesoLimite(): double" style="text;strokeColor=none;fillColor=none;align=left;verticalAlign=top;spacingLeft=4;spacingRight=4;overflow=hidden;rotatable=0;points=[[0,0.5],[1,0.5]];portConstraint=eastwest;whiteSpace=wrap;html=1;" parent="JHWDTWZnFsFwWDoPUUQF-127" vertex="1">
          <mxGeometry y="34" width="160" height="26" as="geometry" />
        </mxCell>
        <mxCell id="JHWDTWZnFsFwWDoPUUQF-152" value="+ pesoActual(): double" style="text;strokeColor=none;fillColor=none;align=left;verticalAlign=top;spacingLeft=4;spacingRight=4;overflow=hidden;rotatable=0;points=[[0,0.5],[1,0.5]];portConstraint=eastwest;whiteSpace=wrap;html=1;" parent="JHWDTWZnFsFwWDoPUUQF-127" vertex="1">
          <mxGeometry y="60" width="160" height="26" as="geometry" />
        </mxCell>
        <mxCell id="JHWDTWZnFsFwWDoPUUQF-130" value="+ superoLimite(): boolean" style="text;strokeColor=none;fillColor=none;align=left;verticalAlign=top;spacingLeft=4;spacingRight=4;overflow=hidden;rotatable=0;points=[[0,0.5],[1,0.5]];portConstraint=eastwest;whiteSpace=wrap;html=1;" parent="JHWDTWZnFsFwWDoPUUQF-127" vertex="1">
          <mxGeometry y="86" width="160" height="26" as="geometry" />
        </mxCell>
        <mxCell id="JHWDTWZnFsFwWDoPUUQF-131" value="SensorHumedad" style="swimlane;fontStyle=1;align=center;verticalAlign=top;childLayout=stackLayout;horizontal=1;startSize=26;horizontalStack=0;resizeParent=1;resizeParentMax=0;resizeLast=0;collapsible=1;marginBottom=0;whiteSpace=wrap;html=1;" parent="1" vertex="1">
          <mxGeometry x="220" y="1000" width="160" height="60" as="geometry" />
        </mxCell>
        <mxCell id="JHWDTWZnFsFwWDoPUUQF-133" value="" style="line;strokeWidth=1;fillColor=none;align=left;verticalAlign=middle;spacingTop=-1;spacingLeft=3;spacingRight=3;rotatable=0;labelPosition=right;points=[];portConstraint=eastwest;strokeColor=inherit;" parent="JHWDTWZnFsFwWDoPUUQF-131" vertex="1">
          <mxGeometry y="26" width="160" height="8" as="geometry" />
        </mxCell>
        <mxCell id="JHWDTWZnFsFwWDoPUUQF-134" value="+ nivelHumedad(): double" style="text;strokeColor=none;fillColor=none;align=left;verticalAlign=top;spacingLeft=4;spacingRight=4;overflow=hidden;rotatable=0;points=[[0,0.5],[1,0.5]];portConstraint=eastwest;whiteSpace=wrap;html=1;" parent="JHWDTWZnFsFwWDoPUUQF-131" vertex="1">
          <mxGeometry y="34" width="160" height="26" as="geometry" />
        </mxCell>
        <mxCell id="JHWDTWZnFsFwWDoPUUQF-135" value="SensorCamara" style="swimlane;fontStyle=1;align=center;verticalAlign=top;childLayout=stackLayout;horizontal=1;startSize=26;horizontalStack=0;resizeParent=1;resizeParentMax=0;resizeLast=0;collapsible=1;marginBottom=0;whiteSpace=wrap;html=1;" parent="1" vertex="1">
          <mxGeometry x="20" y="887" width="160" height="60" as="geometry" />
        </mxCell>
        <mxCell id="JHWDTWZnFsFwWDoPUUQF-137" value="" style="line;strokeWidth=1;fillColor=none;align=left;verticalAlign=middle;spacingTop=-1;spacingLeft=3;spacingRight=3;rotatable=0;labelPosition=right;points=[];portConstraint=eastwest;strokeColor=inherit;" parent="JHWDTWZnFsFwWDoPUUQF-135" vertex="1">
          <mxGeometry y="26" width="160" height="8" as="geometry" />
        </mxCell>
        <mxCell id="JHWDTWZnFsFwWDoPUUQF-138" value="+ cantidadPersonas(): int" style="text;strokeColor=none;fillColor=none;align=left;verticalAlign=top;spacingLeft=4;spacingRight=4;overflow=hidden;rotatable=0;points=[[0,0.5],[1,0.5]];portConstraint=eastwest;whiteSpace=wrap;html=1;" parent="JHWDTWZnFsFwWDoPUUQF-135" vertex="1">
          <mxGeometry y="34" width="160" height="26" as="geometry" />
        </mxCell>
        <mxCell id="JHWDTWZnFsFwWDoPUUQF-139" value="SensorTiempo" style="swimlane;fontStyle=1;align=center;verticalAlign=top;childLayout=stackLayout;horizontal=1;startSize=26;horizontalStack=0;resizeParent=1;resizeParentMax=0;resizeLast=0;collapsible=1;marginBottom=0;whiteSpace=wrap;html=1;" parent="1" vertex="1">
          <mxGeometry x="650" y="894" width="160" height="86" as="geometry" />
        </mxCell>
        <mxCell id="JHWDTWZnFsFwWDoPUUQF-141" value="" style="line;strokeWidth=1;fillColor=none;align=left;verticalAlign=middle;spacingTop=-1;spacingLeft=3;spacingRight=3;rotatable=0;labelPosition=right;points=[];portConstraint=eastwest;strokeColor=inherit;" parent="JHWDTWZnFsFwWDoPUUQF-139" vertex="1">
          <mxGeometry y="26" width="160" height="8" as="geometry" />
        </mxCell>
        <mxCell id="JHWDTWZnFsFwWDoPUUQF-140" value="+ horaActual(): LocalTime" style="text;strokeColor=none;fillColor=none;align=left;verticalAlign=top;spacingLeft=4;spacingRight=4;overflow=hidden;rotatable=0;points=[[0,0.5],[1,0.5]];portConstraint=eastwest;whiteSpace=wrap;html=1;" parent="JHWDTWZnFsFwWDoPUUQF-139" vertex="1">
          <mxGeometry y="34" width="160" height="26" as="geometry" />
        </mxCell>
        <mxCell id="JHWDTWZnFsFwWDoPUUQF-142" value="+ hayLuzSolar(): boolean" style="text;strokeColor=none;fillColor=none;align=left;verticalAlign=top;spacingLeft=4;spacingRight=4;overflow=hidden;rotatable=0;points=[[0,0.5],[1,0.5]];portConstraint=eastwest;whiteSpace=wrap;html=1;" parent="JHWDTWZnFsFwWDoPUUQF-139" vertex="1">
          <mxGeometry y="60" width="160" height="26" as="geometry" />
        </mxCell>
        <mxCell id="JHWDTWZnFsFwWDoPUUQF-144" style="edgeStyle=orthogonalEdgeStyle;rounded=0;orthogonalLoop=1;jettySize=auto;html=1;" parent="1" source="JHWDTWZnFsFwWDoPUUQF-113" target="JHWDTWZnFsFwWDoPUUQF-85" edge="1">
          <mxGeometry relative="1" as="geometry">
            <mxPoint x="609.9999999999995" y="701.9999999999998" as="targetPoint" />
          </mxGeometry>
        </mxCell>
        <mxCell id="JHWDTWZnFsFwWDoPUUQF-145" style="edgeStyle=orthogonalEdgeStyle;rounded=0;orthogonalLoop=1;jettySize=auto;html=1;" parent="1" source="JHWDTWZnFsFwWDoPUUQF-113" target="JHWDTWZnFsFwWDoPUUQF-94" edge="1">
          <mxGeometry relative="1" as="geometry">
            <mxPoint x="-100" y="728" as="targetPoint" />
            <Array as="points">
              <mxPoint x="260" y="673" />
              <mxPoint x="260" y="690" />
            </Array>
          </mxGeometry>
        </mxCell>
        <mxCell id="JHWDTWZnFsFwWDoPUUQF-158" style="edgeStyle=orthogonalEdgeStyle;rounded=0;orthogonalLoop=1;jettySize=auto;html=1;" parent="1" source="JHWDTWZnFsFwWDoPUUQF-154" target="JHWDTWZnFsFwWDoPUUQF-85" edge="1">
          <mxGeometry relative="1" as="geometry">
            <Array as="points">
              <mxPoint x="770" y="240" />
            </Array>
          </mxGeometry>
        </mxCell>
        <mxCell id="JHWDTWZnFsFwWDoPUUQF-159" style="edgeStyle=orthogonalEdgeStyle;rounded=0;orthogonalLoop=1;jettySize=auto;html=1;" parent="1" source="JHWDTWZnFsFwWDoPUUQF-154" target="JHWDTWZnFsFwWDoPUUQF-69" edge="1">
          <mxGeometry relative="1" as="geometry">
            <Array as="points">
              <mxPoint x="610" y="270" />
            </Array>
          </mxGeometry>
        </mxCell>
        <mxCell id="JHWDTWZnFsFwWDoPUUQF-154" value="Lugar" style="swimlane;fontStyle=1;align=center;verticalAlign=top;childLayout=stackLayout;horizontal=1;startSize=26;horizontalStack=0;resizeParent=1;resizeParentMax=0;resizeLast=0;collapsible=1;marginBottom=0;whiteSpace=wrap;html=1;" parent="1" vertex="1">
          <mxGeometry x="360" y="190" width="160" height="112" as="geometry" />
        </mxCell>
        <mxCell id="JHWDTWZnFsFwWDoPUUQF-155" value="- idLugar: int" style="text;strokeColor=none;fillColor=none;align=left;verticalAlign=top;spacingLeft=4;spacingRight=4;overflow=hidden;rotatable=0;points=[[0,0.5],[1,0.5]];portConstraint=eastwest;whiteSpace=wrap;html=1;" parent="JHWDTWZnFsFwWDoPUUQF-154" vertex="1">
          <mxGeometry y="26" width="160" height="26" as="geometry" />
        </mxCell>
        <mxCell id="JHWDTWZnFsFwWDoPUUQF-157" value="- nombre: String" style="text;strokeColor=none;fillColor=none;align=left;verticalAlign=top;spacingLeft=4;spacingRight=4;overflow=hidden;rotatable=0;points=[[0,0.5],[1,0.5]];portConstraint=eastwest;whiteSpace=wrap;html=1;" parent="JHWDTWZnFsFwWDoPUUQF-154" vertex="1">
          <mxGeometry y="52" width="160" height="26" as="geometry" />
        </mxCell>
        <mxCell id="JHWDTWZnFsFwWDoPUUQF-72" value="- sensores: Set&amp;lt;Sensor&amp;gt;&amp;nbsp;" style="text;strokeColor=none;fillColor=none;align=left;verticalAlign=top;spacingLeft=4;spacingRight=4;overflow=hidden;rotatable=0;points=[[0,0.5],[1,0.5]];portConstraint=eastwest;whiteSpace=wrap;html=1;" parent="JHWDTWZnFsFwWDoPUUQF-154" vertex="1">
          <mxGeometry y="78" width="160" height="26" as="geometry" />
        </mxCell>
        <mxCell id="JHWDTWZnFsFwWDoPUUQF-156" value="" style="line;strokeWidth=1;fillColor=none;align=left;verticalAlign=middle;spacingTop=-1;spacingLeft=3;spacingRight=3;rotatable=0;labelPosition=right;points=[];portConstraint=eastwest;strokeColor=inherit;" parent="JHWDTWZnFsFwWDoPUUQF-154" vertex="1">
          <mxGeometry y="104" width="160" height="8" as="geometry" />
        </mxCell>
        <mxCell id="JHWDTWZnFsFwWDoPUUQF-160" style="edgeStyle=orthogonalEdgeStyle;rounded=0;orthogonalLoop=1;jettySize=auto;html=1;entryX=0.659;entryY=0;entryDx=0;entryDy=0;entryPerimeter=0;" parent="1" source="JHWDTWZnFsFwWDoPUUQF-154" target="JHWDTWZnFsFwWDoPUUQF-77" edge="1">
          <mxGeometry relative="1" as="geometry">
            <Array as="points">
              <mxPoint x="332" y="290" />
            </Array>
          </mxGeometry>
        </mxCell>
        <mxCell id="JHWDTWZnFsFwWDoPUUQF-161" style="edgeStyle=orthogonalEdgeStyle;rounded=0;orthogonalLoop=1;jettySize=auto;html=1;" parent="1" source="JHWDTWZnFsFwWDoPUUQF-157" target="JHWDTWZnFsFwWDoPUUQF-62" edge="1">
          <mxGeometry relative="1" as="geometry">
            <Array as="points">
              <mxPoint x="320" y="260" />
              <mxPoint x="-80" y="260" />
            </Array>
          </mxGeometry>
        </mxCell>
        <mxCell id="JHWDTWZnFsFwWDoPUUQF-162" style="edgeStyle=orthogonalEdgeStyle;rounded=0;orthogonalLoop=1;jettySize=auto;html=1;" parent="1" source="JHWDTWZnFsFwWDoPUUQF-154" target="JHWDTWZnFsFwWDoPUUQF-94" edge="1">
          <mxGeometry relative="1" as="geometry">
            <Array as="points">
              <mxPoint x="400" y="210" />
              <mxPoint x="-130" y="210" />
            </Array>
          </mxGeometry>
        </mxCell>
      </root>
    </mxGraphModel>
  </diagram>
</mxfile>
